<svg width="54" height="60" viewBox="0 0 54 60" fill="none" xmlns="http://www.w3.org/2000/svg">
<path d="M52.03 42.0492L45.958 38.5436L51.2199 35.4409C52.1904 34.8686 52.5133 33.6179 51.941 32.6474C51.3687 31.6772 50.1183 31.3543 49.1475 31.9263L41.8992 36.2003L30.9704 29.8904L41.8973 23.5815L49.1478 27.855C49.4729 28.0467 49.8297 28.1376 50.1817 28.1376C50.8802 28.1376 51.5605 27.7785 51.941 27.1331C52.513 26.1626 52.1899 24.9119 51.2194 24.3396L45.9567 21.238L52.03 17.7316C53.0056 17.1683 53.3399 15.9206 52.7766 14.9449C52.2133 13.969 50.9656 13.6347 49.9899 14.1983L43.918 17.7041L43.8628 11.5947C43.8527 10.468 42.9285 9.55763 41.8046 9.57313C40.6779 9.5832 39.7727 10.5047 39.783 11.6314L39.8589 20.0474L28.9307 26.3571V13.7389L36.2576 9.59788C37.2385 9.04354 37.5842 7.79913 37.0298 6.81802C36.4755 5.83718 35.2308 5.49119 34.25 6.0458L28.9307 9.05225V2.04002C28.9307 0.913385 28.0173 0 26.8907 0C25.764 0 24.8506 0.913385 24.8506 2.04002V9.05225L19.5314 6.04607C18.55 5.49146 17.3061 5.83718 16.7515 6.81829C16.1972 7.79913 16.5429 9.04381 17.5237 9.59816L24.8504 13.7391V26.3571L13.9221 20.0474L13.998 11.6314C14.0083 10.5047 13.1031 9.5832 11.9765 9.57313C11.9702 9.57313 11.9642 9.57313 11.9577 9.57313C10.8398 9.57313 9.92831 10.4743 9.91824 11.5949L9.86303 17.7041L3.79111 14.1983C2.81544 13.6347 1.56776 13.9692 1.00445 14.9449C0.441129 15.9206 0.77542 17.1683 1.75109 17.7316L7.8241 21.238L2.56057 24.3402C1.59007 24.9122 1.26693 26.1628 1.83895 27.1336C2.21948 27.7791 2.89976 28.1381 3.59854 28.1381C3.95051 28.1381 4.3071 28.047 4.63242 27.8555L11.8837 23.5821L22.8109 29.8909L11.8818 36.2008L4.63242 31.926C3.66246 31.354 2.41124 31.6766 1.83895 32.6471C1.26666 33.6176 1.58952 34.8683 2.56003 35.4403L7.82274 38.5433L1.75082 42.0489C0.775148 42.6122 0.440857 43.8599 1.00417 44.8356C1.38199 45.49 2.0677 45.8558 2.77274 45.8558C3.11872 45.8558 3.46961 45.7677 3.79084 45.5822L9.86276 42.0764L9.91797 48.1861C9.92804 49.3065 10.8395 50.2079 11.9574 50.2079C11.9637 50.2079 11.97 50.2079 11.9762 50.2076C13.1029 50.1975 14.0081 49.276 13.9977 48.1494L13.9219 39.7331L24.8504 33.4234V46.0419L17.5237 50.1828C16.5429 50.7372 16.1972 51.9816 16.7515 52.9627C17.1266 53.6264 17.8177 53.9993 18.5293 53.9993C18.8693 53.9993 19.2142 53.9142 19.5314 53.7349L24.8506 50.7288V57.741C24.8506 58.8676 25.764 59.781 26.8907 59.781C28.0173 59.781 28.9307 58.8676 28.9307 57.741V50.7288L34.25 53.7349C34.5671 53.9142 34.9117 53.9993 35.252 53.9993C35.9636 53.9993 36.6547 53.6264 37.0298 52.9627C37.5842 51.9819 37.2385 50.7372 36.2576 50.1828L28.9307 46.0419V33.4237L39.8589 39.7331L39.7811 48.1491C39.7705 49.2757 40.6755 50.1975 41.8021 50.2079C41.8086 50.2081 41.8149 50.2081 41.8214 50.2081C42.9391 50.2081 43.8506 49.307 43.8609 48.1869L43.9175 42.0764L49.9902 45.5825C50.3114 45.768 50.6623 45.8561 51.0083 45.8561C51.7133 45.8561 52.3991 45.49 52.7769 44.8358C53.3402 43.8601 53.0059 42.6125 52.03 42.0492Z" fill="#F0F0F0"/>
</svg>
